<svg xmlns="http://www.w3.org/2000/svg" xml:space="preserve" viewBox="0 0 256 256"><g class="svg-button__clone"><path fill="#FFF" d="M161.9 236.1c46.2-4.1 72.3-68 72.3-110.6 0-42.5-24.1-83.6-66.6-96.4-42.5-12.7-134.7 32.6-131.8 92.2 2.8 59.5 29.7 123.3 126.1 114.8" data-original="M161.9 236.1c46.2-4.1 72.3-68 72.3-110.6 0-42.5-24.1-83.6-66.6-96.4-42.5-12.7-134.7 32.6-131.8 92.2 2.8 59.5 29.7 123.3 126.1 114.8"></path><path fill="#06C" d="m173.3 182.2 48.2-36-28.9-39.7-10.2 6.3 14.7 18.7-139.5-10.8-1.1 15.3 144.6 5.7-36.3 27.7z" data-original="m173.3 182.2 48.2-36-28.9-39.7-10.2 6.3 14.7 18.7-139.5-10.8-1.1 15.3 144.6 5.7-36.3 27.7z"></path><text fill="#06C" font-family="'Chocoladeletter'" font-size="39.427" transform="matrix(0.9994,0.0349,-0.0349,0.9994,57.2501,110.578)" data-svg-origin="0 -29.439727783203125">choco</text><text fill="#06C" font-family="'Chocoladeletter'" font-size="39.427" transform="matrix(1 -4.360000e-03 4.360000e-03 1 61.0673 181.4691)" data-svg-origin="0 -29.439720153808594">shop</text></g><g class="svg-button__default"><path fill="#FFF" d="M161.9 236.1c46.2-4.1 72.3-68 72.3-110.6 0-42.5-24.1-83.6-66.6-96.4-42.5-12.7-134.7 32.6-131.8 92.2 2.8 59.5 29.7 123.3 126.1 114.8"></path><path fill="#06C" d="m173.3 182.2 48.2-36-28.9-39.7-10.2 6.3 14.7 18.7-139.5-10.8-1.1 15.3 144.6 5.7-36.3 27.7z"></path><text fill="#06C" font-family="'Chocoladeletter'" font-size="39.427" transform="matrix(0.9994 3.490000e-02 -3.490000e-02 0.9994 57.2501 110.5775)">choco</text><text fill="#06C" font-family="'Chocoladeletter'" font-size="39.427" transform="matrix(1 -4.360000e-03 4.360000e-03 1 61.0673 181.4691)">shop</text></g><g class="svg-button__hover"><path fill="#FFF" d="M23.7 61c-35.8 42.7-3.6 119.1 32.5 155.1 36.1 36.1 91.4 50.5 138.3 25.3 46.9-25.3 86.6-141.9 33.7-190C175.2 3.2 98.3-28 23.7 61"></path><path fill="#06C" d="m173.3 182.2 48.2-36-28.9-39.7-10.2 6.3 14.7 18.7-139.5-10.8-1.1 15.3 144.6 5.7-36.3 27.7z"></path><text fill="#06C" font-family="'Chocoladeletter'" font-size="39.427" transform="matrix(0.9994 3.490000e-02 -3.490000e-02 0.9994 57.2501 110.5775)">choco</text><text fill="#06C" font-family="'Chocoladeletter'" font-size="39.427" transform="matrix(1 -4.360000e-03 4.360000e-03 1 61.0673 181.4691)">shop</text></g><g class="svg-button__down"><path fill="#FFF" d="M23.7 61c-35.8 42.7-3.6 119.1 32.5 155.1 36.1 36.1 91.4 50.5 138.3 25.3 46.9-25.3 86.6-141.9 33.7-190C175.2 3.2 98.3-28 23.7 61"></path><path fill="#06C" d="m190.6 182.2 48.2-36-28.9-39.7-10.2 6.3 14.7 18.7L31 121l-2.5 7.8 189.9 12.9-36.3 27.7z"></path><text fill="#06C" font-family="'Chocoladeletter'" font-size="39.427" transform="matrix(0.9994 3.490000e-02 -3.490000e-02 0.9994 57.2501 120.5782)">choco</text><text fill="#06C" font-family="'Chocoladeletter'" font-size="39.427" transform="matrix(1 -4.360000e-03 4.360000e-03 1 61.0673 171.4685)">shop</text></g></svg>