<svg xmlns="http://www.w3.org/2000/svg" xml:space="preserve" viewBox="0 0 256 256"><g class="svg-button__clone"><path fill="red" d="M47.2 48.1c28.5-36.7 96.3-24 132.1-1s57.3 65.5 45 108.2-100.3 95.6-148.8 61-87.6-91.7-28.3-168.2" data-original="M47.2 48.1c28.5-36.7 96.3-24 132.1-1s57.3 65.5 45 108.2-100.3 95.6-148.8 61-87.6-91.7-28.3-168.2"></path><path fill="#FFF" d="M71.2 80.7 C56.23 94.03 41.26 107.36 26.3 120.7 36.2 134.06 46.1 147.43 56 160.8 58.23 158.8 60.46 156.8 62.7 154.8 57.1 147.13 51.5 139.46 45.9 131.8 94.46 129.83 143.03 127.86 191.6 125.9 191.4 121.16 191.2 116.43 191 111.7 142.23 113.9 93.46 116.1 44.69 118.3 55.39 108.43 66.09 98.56 76.79 88.69 74.93 86.03 73.06 83.36 71.2 80.7 " data-original="m71.2 80.7-44.9 40L56 160.8l6.7-6-16.8-23 145.7-5.9-.6-14.2-146.3 6.6 32.1-29.6z"></path><text fill="#FFF" font-family="'Chocoladeletter'" font-size="39.427" transform="matrix(0.9999 -1.309000e-02 1.309000e-02 0.9999 85.399 102.2502)" data-svg-origin="0 -29.44042205810547">onze</text><text fill="#FFF" font-family="'Chocoladeletter'" font-size="39.427" transform="matrix(0.9986,-0.05232,0.05232,0.9986,72.5351,173.989)" data-svg-origin="0 -29.440879821777344">missie</text></g><g class="svg-button__default"><path fill="red" d="M47.2 48.1c28.5-36.7 96.3-24 132.1-1s57.3 65.5 45 108.2-100.3 95.6-148.8 61-87.6-91.7-28.3-168.2"></path><path fill="#FFF" d="m71.2 80.7-44.9 40L56 160.8l6.7-6-16.8-23 145.7-5.9-.6-14.2-146.3 6.6 32.1-29.6z"></path><text fill="#FFF" font-family="'Chocoladeletter'" font-size="39.427" transform="matrix(0.9999 -1.309000e-02 1.309000e-02 0.9999 85.399 102.2502)">onze</text><text fill="#FFF" font-family="'Chocoladeletter'" font-size="39.427" transform="matrix(0.9986 -5.233000e-02 5.233000e-02 0.9986 72.5351 173.9895)">missie</text></g><g class="svg-button__hover"><path fill="red" d="M253.8 155.6c-4.6 55.5-81.2 87.1-132.3 87.3-51 .2-100.5-28.5-116-79.4S43.9 1.8 115.4 4.9c71.4 3.1 148.1 35 138.4 150.7"></path><path fill="#FFF" d="m71.2 80.7-44.9 40L56 160.8l6.7-6-16.8-23 145.7-5.9-.6-14.2-146.3 6.6 32.1-29.6z"></path><text fill="#FFF" font-family="'Chocoladeletter'" font-size="39.427" transform="matrix(0.9999 -1.309000e-02 1.309000e-02 0.9999 85.399 102.2502)">onze</text><text fill="#FFF" font-family="'Chocoladeletter'" font-size="39.427" transform="matrix(0.9986 -5.233000e-02 5.233000e-02 0.9986 72.5351 173.9895)">missie</text></g><g class="svg-button__down"><path fill="red" d="M253.8 155.6c-4.6 55.5-81.2 87.1-132.3 87.3-51 .2-100.5-28.5-116-79.4S43.9 1.8 115.4 4.9c71.4 3.1 148.1 35 138.4 150.7"></path><path fill="#FFF" d="m58.5 80.7-44.9 40 29.7 40.1 6.7-6-16.8-23 204.7-8.3v-7.8L32 118.3l32.2-29.6z"></path><text fill="#FFF" font-family="'Chocoladeletter'" font-size="39.427" transform="matrix(0.9999 -1.309000e-02 1.309000e-02 0.9999 85.399 112.2508)">onze</text><text fill="#FFF" font-family="'Chocoladeletter'" font-size="39.427" transform="matrix(0.9986 -5.233000e-02 5.233000e-02 0.9986 72.5351 163.9888)">missie</text></g></svg>